# xmcd
#
# Track frame offsets:
#        150
#        15492
#        36170
#        56109
#        72158
#        90040
#
# Disc length: 1475 seconds
#
# Revision: 0
# Processed by: cddbd v1.5.1PL0 Copyright (c) Steve Scherf et al.
# Submitted via: ExactAudioCopy v0.95a5
#
DISCID=3f05c106
DTITLE=Hora - Inner Universe
DYEAR=1900
DGENRE=Techno-Industrial
TTITLE0=Synthetic Anthem
TTITLE1=Inner Universe
TTITLE2=Modulate God
TTITLE3=Dusk
TTITLE4=Frozen Past
TTITLE5=Inner Universe -Inst Mix-
EXTD=
EXTT0=
EXTT1=
EXTT2=
EXTT3=
EXTT4=
EXTT5=
PLAYORDER=
